<svg width="96" height="96" viewBox="0 0 96 96" fill="none" xmlns="http://www.w3.org/2000/svg">
  <rect width="96" height="96" rx="22" fill="#102D24"/>
  <path d="M26 31.5C26 28.4624 28.4624 26 31.5 26H64.5C67.5376 26 70 28.4624 70 31.5V64.5C70 67.5376 67.5376 70 64.5 70H31.5C28.4624 70 26 67.5376 26 64.5V31.5Z" fill="#FFFDF8"/>
  <path d="M35 39C35 36.7909 36.7909 35 39 35H57C59.2091 35 61 36.7909 61 39V57C61 59.2091 59.2091 61 57 61H39C36.7909 61 35 59.2091 35 57V39Z" fill="#0F3B2E"/>
  <path d="M43 47.5C43 45.0147 45.0147 43 47.5 43H53C55.2091 43 57 44.7909 57 47C57 49.2091 55.2091 51 53 51H50.5C48.0147 51 46 53.0147 46 55.5V57H43V47.5Z" fill="#F2A94A"/>
  <path d="M53 39H57V43H53V39Z" fill="#F2A94A"/>
</svg>
